<?xml version="1.0" encoding="UTF-8" standalone="no"?>
<svg
   xmlns:dc="http://purl.org/dc/elements/1.1/"
   xmlns:cc="http://creativecommons.org/ns#"
   xmlns:rdf="http://www.w3.org/1999/02/22-rdf-syntax-ns#"
   xmlns:svg="http://www.w3.org/2000/svg"
   xmlns="http://www.w3.org/2000/svg"
   xmlns:sodipodi="http://sodipodi.sourceforge.net/DTD/sodipodi-0.dtd"
   xmlns:inkscape="http://www.inkscape.org/namespaces/inkscape"
   width="1154.6134mm"
   height="304.80002mm"
   viewBox="0 0 1154.6134 304.80002"
   version="1.1"
   id="svg289"
   inkscape:version="1.0.1 (3bc2e813f5, 2020-09-07)"
   sodipodi:docname="OpenWrt.svg">
  <defs
     id="defs283">
    <clipPath
       clipPathUnits="userSpaceOnUse"
       id="clipPath32">
      <path
         d="M 0,0 H 792 V 612 H 0 Z"
         id="path30" />
    </clipPath>
    <clipPath
       clipPathUnits="userSpaceOnUse"
       id="clipPath60">
      <path
         d="M 0,0 H 792 V 612 H 0 Z"
         id="path58" />
    </clipPath>
    <clipPath
       clipPathUnits="userSpaceOnUse"
       id="clipPath82">
      <path
         d="M 0,0 H 792 V 612 H 0 Z"
         id="path80" />
    </clipPath>
    <clipPath
       clipPathUnits="userSpaceOnUse"
       id="clipPath106">
      <path
         d="M 0,0 H 792 V 612 H 0 Z"
         id="path104" />
    </clipPath>
    <clipPath
       clipPathUnits="userSpaceOnUse"
       id="clipPath126">
      <path
         d="M 0,0 H 792 V 612 H 0 Z"
         id="path124" />
    </clipPath>
    <clipPath
       clipPathUnits="userSpaceOnUse"
       id="clipPath146">
      <path
         d="M 0,0 H 792 V 612 H 0 Z"
         id="path144" />
    </clipPath>
    <clipPath
       clipPathUnits="userSpaceOnUse"
       id="clipPath166">
      <path
         d="M 0,0 H 792 V 612 H 0 Z"
         id="path164" />
    </clipPath>
  </defs>
  <sodipodi:namedview
     id="base"
     pagecolor="#ffffff"
     bordercolor="#666666"
     borderopacity="1.0"
     inkscape:pageopacity="0.0"
     inkscape:pageshadow="2"
     inkscape:zoom="0.058612782"
     inkscape:cx="-2798.2618"
     inkscape:cy="2072.6971"
     inkscape:document-units="mm"
     inkscape:current-layer="layer1"
     inkscape:document-rotation="0"
     showgrid="false"
     fit-margin-top="0"
     fit-margin-left="0"
     fit-margin-right="0"
     fit-margin-bottom="0"
     inkscape:window-width="1280"
     inkscape:window-height="736"
     inkscape:window-x="0"
     inkscape:window-y="27"
     inkscape:window-maximized="1" />
  <metadata
     id="metadata286">
    <rdf:RDF>
      <cc:Work
         rdf:about="">
        <dc:format>image/svg+xml</dc:format>
        <dc:type
           rdf:resource="http://purl.org/dc/dcmitype/StillImage" />
        <dc:title></dc:title>
      </cc:Work>
    </rdf:RDF>
  </metadata>
  <g
     inkscape:label="Layer 1"
     inkscape:groupmode="layer"
     id="layer1"
     transform="translate(2.4795578,53.153574)">
    <path
       d="m 398.33422,92.084695 c 13.18791,13.126845 19.77805,29.140215 19.77805,48.055385 0,18.77771 -6.59014,34.69945 -19.77805,47.75757 -13.18794,13.0581 -29.30058,19.58715 -48.34557,19.58715 -19.03736,0 -35.14999,-6.52905 -48.33792,-19.58715 -13.1803,-13.05812 -19.77809,-28.97986 -19.77809,-47.75757 0,-18.91517 6.59779,-34.92854 19.77809,-48.055385 13.18793,-13.119194 29.30056,-19.678791 48.33792,-19.678791 19.04499,0 35.15763,6.559597 48.34557,19.678791 m -18.72427,78.539565 c 8.04866,-8.10213 12.06536,-18.26607 12.06536,-30.48418 0,-12.22576 -4.0167,-22.45079 -12.06536,-30.68276 -8.03341,-8.23959 -17.90719,-12.35556 -29.6213,-12.35556 -11.69886,0 -21.58025,4.11597 -29.61366,12.35556 -8.04105,8.23197 -12.06539,18.457 -12.06539,30.68276 0,12.21811 4.02434,22.38205 12.06539,30.48418 8.03341,8.10979 17.9148,12.15705 29.61366,12.15705 11.71411,0 21.58789,-4.04726 29.6213,-12.15705"
       style="fill:#43b0e8;fill-opacity:1;fill-rule:nonzero;stroke:none;stroke-width:7.63632"
       id="path36" />
    <path
       d="m 529.73621,119.9718 c 9.45378,9.7134 14.18067,21.90098 14.18067,36.57035 0,14.66174 -4.69635,26.81876 -14.08901,36.47107 -9.38506,9.64469 -20.45769,14.47083 -33.18741,14.47083 -12.6076,0 -23.22212,-3.47454 -31.8435,-10.42356 v 40.33504 H 439.32977 V 108.29587 h 25.46719 v 7.72032 c 8.49159,-7.07888 19.1061,-10.61449 31.8435,-10.61449 12.60747,0 23.64197,4.85671 33.09575,14.5701 m -18.13624,57.50914 c 5.07815,-5.2156 7.62103,-12.19521 7.62103,-20.93879 0,-8.75123 -2.54288,-15.76138 -7.62103,-21.03807 -5.08579,-5.27668 -11.55374,-7.91123 -19.40391,-7.91123 -7.20104,0 -13.56972,2.70327 -19.09843,8.10977 -5.53637,5.39888 -8.30067,12.34794 -8.30067,20.83953 0,8.48396 2.7643,15.40247 8.30067,20.74024 5.52871,5.3378 11.89739,8.01052 19.09843,8.01052 7.85017,0 14.31812,-2.60399 19.40391,-7.81197"
       style="fill:#43b0e8;fill-opacity:1;fill-rule:nonzero;stroke:none;stroke-width:7.63632"
       id="path40" />
    <path
       d="m 654.09527,163.29341 h -73.33159 c 1.29049,6.81925 4.14649,12.24867 8.59084,16.30356 4.4367,4.05488 9.61412,6.08613 15.53228,6.08613 10.93522,0 18.91512,-4.25343 23.92458,-12.74502 l 22.77155,4.82616 c -4.11598,9.78213 -10.22506,17.17408 -18.32723,22.19115 -8.10974,5.02471 -17.56352,7.52941 -28.3689,7.52941 -13.8905,0 -25.59698,-4.75743 -35.11948,-14.2799 -9.52245,-9.5225 -14.27989,-21.74063 -14.27989,-36.66201 0,-14.929 4.78801,-27.17767 14.37155,-36.76124 9.59119,-9.59123 21.38937,-14.37919 35.40966,-14.37919 13.12684,0 24.41329,4.59706 33.87472,13.79118 9.45374,9.20178 14.44031,21.00753 14.95191,35.41727 z m -63.58767,-31.0722 c -4.56651,3.09271 -7.55234,7.46833 -8.96504,13.12684 h 46.49754 c -1.54245,-5.91816 -4.36795,-10.35484 -8.48393,-13.31774 -4.11599,-2.95525 -8.88102,-4.43671 -14.28753,-4.43671 -5.26912,0 -10.1945,1.54252 -14.76104,4.62761"
       style="fill:#43b0e8;fill-opacity:1;fill-rule:nonzero;stroke:none;stroke-width:7.63632"
       id="path44" />
    <path
       d="m 757.13291,116.69122 c 7.07889,7.52179 10.61451,17.26574 10.61451,29.23184 v 58.66987 h -25.47476 v -53.26335 c 0,-6.81925 -1.76399,-12.28683 -5.30726,-16.40282 -3.53562,-4.11598 -8.26251,-6.17779 -14.18067,-6.17779 -15.95226,0 -23.93224,11.06504 -23.93224,33.1951 v 42.64886 H 673.38537 V 108.2989 h 25.46712 v 8.68251 c 7.7203,-7.72033 17.82321,-11.5843 30.30093,-11.5843 11.5767,0 20.90829,3.7647 27.97949,11.29411"
       style="fill:#43b0e8;fill-opacity:1;fill-rule:nonzero;stroke:none;stroke-width:7.63632"
       id="path48" />
    <path
       d="m 924.81506,204.58986 h -28.17041 l -25.08533,-87.22208 -25.2838,87.22208 H 818.29598 L 780.66417,75.299294 h 27.39914 l 24.70352,89.154056 26.05513,-89.154056 h 25.27616 l 26.05521,89.154056 24.69584,-89.154056 h 27.59765 z"
       style="fill:#43b0e8;fill-opacity:1;fill-rule:nonzero;stroke:none;stroke-width:7.63632"
       id="path52" />
    <path
       d="m 1041.7425,107.71932 -1.3516,24.50496 h -5.5974 c -22.9014,0 -34.3482,13.76829 -34.3482,41.29723 v 31.06456 h -25.47472 v -96.28639 h 25.47472 v 17.5559 c 8.7512,-12.60756 20.2668,-18.90754 34.5467,-18.90754 2.9553,0 5.208,0.25192 6.7505,0.77126"
       style="fill:#43b0e8;fill-opacity:1;fill-rule:nonzero;stroke:none;stroke-width:7.63632"
       id="path64" />
    <path
       d="m 1129.7281,200.34409 c -8.8733,4.76506 -17.235,7.13996 -25.0852,7.13996 -11.8364,0 -21.0992,-3.18433 -27.7886,-9.55304 -6.6894,-6.36867 -10.0341,-15.98282 -10.0341,-28.85002 v -39.94561 h -20.6487 v -20.83951 h 20.6487 V 79.155665 h 25.4747 v 29.140205 h 31.4541 v 20.83951 h -31.4541 v 38.01363 c 0,11.06502 4.6964,16.60136 14.0814,16.60136 4.8948,0 10.2327,-1.55009 16.021,-4.63525 z"
       style="fill:#43b0e8;fill-opacity:1;fill-rule:nonzero;stroke:none;stroke-width:7.63632"
       id="path68" />
    <path
       d="m 524.3556,251.01567 h -7.44544 l -4.71159,-17.41081 -4.74987,17.41081 h -7.40718 l -8.03344,-28.17803 h 7.10942 l 4.92546,17.74682 4.8338,-17.74682 h 6.60539 l 4.8338,17.74682 4.92545,-17.74682 h 7.14761 z"
       style="fill:#072342;fill-opacity:1;fill-rule:nonzero;stroke:none;stroke-width:7.63632"
       id="path72" />
    <path
       d="m 543.50289,251.01262 h 6.94144 v -28.17803 h -6.94144 z"
       style="fill:#072342;fill-opacity:1;fill-rule:nonzero;stroke:none;stroke-width:7.63632"
       id="path74" />
    <path
       d="m 581.19209,251.01567 -8.4993,-9.67521 h -2.01587 v 9.67521 h -6.94144 v -28.17803 h 14.257 c 3.05456,0 5.51351,0.84766 7.36147,2.5429 1.85569,1.69533 2.77958,3.91742 2.77958,6.6665 0,2.29854 -0.66433,4.23818 -1.9778,5.82651 -1.32107,1.58083 -3.12328,2.62691 -5.42945,3.13089 l 8.83518,10.01123 z m -3.95565,-15.47883 c 1.2371,0 2.22212,-0.31299 2.97056,-0.92409 0.74073,-0.61864 1.11497,-1.44337 1.11497,-2.48178 0,-1.01565 -0.3744,-1.82499 -1.11497,-2.44363 -0.74836,-0.61085 -1.73346,-0.92407 -2.97056,-0.92407 h -6.55959 v 6.7734 z"
       style="fill:#072342;fill-opacity:1;fill-rule:nonzero;stroke:none;stroke-width:7.63632"
       id="path86" />
    <path
       d="m 622.66941,251.01567 h -21.95444 v -28.17803 h 21.8246 v 5.9716 h -14.8832 v 5.29961 h 13.66904 v 5.63561 h -13.66904 v 5.29961 h 15.01304 z"
       style="fill:#072342;fill-opacity:1;fill-rule:nonzero;stroke:none;stroke-width:7.63632"
       id="path90" />
    <path
       d="M 656.23874,251.01567 H 635.4145 v -28.17803 h 6.949 v 22.12242 h 13.87524 z"
       style="fill:#072342;fill-opacity:1;fill-rule:nonzero;stroke:none;stroke-width:7.63632"
       id="path94" />
    <path
       d="M 690.48299,251.01567 H 668.5286 v -28.17803 h 21.82464 v 5.9716 h -14.8832 v 5.29961 h 13.66899 v 5.63561 h -13.66899 v 5.29961 h 15.01295 z"
       style="fill:#072342;fill-opacity:1;fill-rule:nonzero;stroke:none;stroke-width:7.63632"
       id="path98" />
    <path
       d="m 722.03485,224.36719 c 2.07723,1.44337 3.37533,3.44399 3.90978,5.99452 l -6.81156,1.38991 c -0.25167,-1.26003 -0.84774,-2.23745 -1.77155,-2.92472 -0.9163,-0.68726 -1.97781,-1.03101 -3.15379,-1.03101 -1.12262,0 -2.03127,0.27493 -2.73383,0.81715 -0.70261,0.54982 -1.05369,1.22951 -1.05369,2.04644 0,1.2295 0.76363,2.01592 2.27562,2.35197 l 5.84179,1.3057 c 5.16212,1.14553 7.74318,3.8869 7.74318,8.20143 0,2.88653 -1.10717,5.1316 -3.32176,6.7276 -2.21456,1.59597 -4.97889,2.39779 -8.2854,2.39779 -3.28358,0 -6.0633,-0.74831 -8.34654,-2.24506 -2.29092,-1.50441 -3.61199,-3.59672 -3.97849,-6.29233 l 7.14757,-1.38211 c 0.67971,2.77197 2.52763,4.16179 5.55161,4.16179 1.29053,0 2.31382,-0.26728 3.05448,-0.80177 0.74078,-0.53445 1.11506,-1.23708 1.11506,-2.0999 0,-0.67191 -0.19051,-1.20657 -0.57281,-1.60356 -0.37439,-0.3894 -1.05374,-0.68727 -2.03879,-0.87819 l -5.88766,-1.26761 c -5.04757,-1.14552 -7.56755,-3.86397 -7.56755,-8.15558 0,-2.72617 1.02319,-4.87961 3.06976,-6.48324 2.04666,-1.59599 4.73449,-2.39017 8.07155,-2.39017 3.09279,0 5.6662,0.71779 7.74327,2.16116"
       style="fill:#072342;fill-opacity:1;fill-rule:nonzero;stroke:none;stroke-width:7.63632"
       id="path110" />
    <path
       d="m 756.95042,224.36719 c 2.07724,1.44337 3.38292,3.44399 3.91747,5.99452 l -6.8193,1.38991 c -0.25207,-1.26003 -0.84004,-2.23745 -1.76394,-2.92472 -0.92407,-0.68726 -1.97784,-1.03101 -3.15378,-1.03101 -1.12254,0 -2.03888,0.27493 -2.73384,0.81715 -0.7024,0.54982 -1.05366,1.22951 -1.05366,2.04644 0,1.2295 0.75609,2.01592 2.26794,2.35197 l 5.84945,1.3057 c 5.15447,1.14553 7.73554,3.8869 7.73554,8.20143 0,2.88653 -1.09966,5.1316 -3.32178,6.7276 -2.2145,1.59597 -4.97889,2.39779 -8.2854,2.39779 -3.27598,0 -6.06325,-0.74831 -8.34652,-2.24506 -2.28324,-1.50441 -3.61196,-3.59672 -3.9785,-6.29233 l 7.15525,-1.38211 c 0.67185,2.77197 2.51994,4.16179 5.55157,4.16179 1.29058,0 2.30612,-0.26728 3.04687,-0.80177 0.74831,-0.53445 1.11499,-1.23708 1.11499,-2.0999 0,-0.67191 -0.19051,-1.20657 -0.5652,-1.60356 -0.38184,-0.3894 -1.06147,-0.68727 -2.0388,-0.87819 l -5.88762,-1.26761 c -5.05526,-1.14552 -7.57524,-3.86397 -7.57524,-8.15558 0,-2.72617 1.02324,-4.87961 3.06977,-6.48324 2.04664,-1.59599 4.74214,-2.39017 8.07163,-2.39017 3.0927,0 5.67377,0.71779 7.74322,2.16116"
       style="fill:#072342;fill-opacity:1;fill-rule:nonzero;stroke:none;stroke-width:7.63632"
       id="path114" />
    <path
       d="m 798.85313,234.86404 h 13.20318 v 6.05562 h -13.20318 v 10.09522 h -6.94147 v -28.17804 h 21.78645 v 6.09379 h -14.84498 z"
       style="fill:#072342;fill-opacity:1;fill-rule:nonzero;stroke:none;stroke-width:7.63632"
       id="path118" />
    <path
       d="m 842.94152,251.01567 -8.49922,-9.67521 h -2.01595 v 9.67521 H 825.485 v -28.17803 h 14.25696 c 3.05451,0 5.50581,0.84766 7.36142,2.5429 1.85572,1.69533 2.77962,3.91742 2.77962,6.6665 0,2.29854 -0.66429,4.23818 -1.98536,5.82651 -1.31355,1.58083 -3.12329,2.62691 -5.42181,3.13089 l 8.8352,10.01123 z m -3.96325,-15.47883 c 1.24466,0 2.22985,-0.31299 2.97055,-0.92409 0.74074,-0.61864 1.11481,-1.44337 1.11481,-2.48178 0,-1.01565 -0.3744,-1.82499 -1.11481,-2.44363 -0.7407,-0.61085 -1.72585,-0.92407 -2.97055,-0.92407 h -6.55196 v 6.7734 z"
       style="fill:#072342;fill-opacity:1;fill-rule:nonzero;stroke:none;stroke-width:7.63632"
       id="path130" />
    <path
       d="m 884.41893,251.01567 h -21.95444 v -28.17803 h 21.82463 v 5.9716 h -14.88323 v 5.29961 h 13.66142 v 5.63561 h -13.66142 v 5.29961 h 15.01304 z"
       style="fill:#072342;fill-opacity:1;fill-rule:nonzero;stroke:none;stroke-width:7.63632"
       id="path134" />
    <path
       d="m 919.12518,251.01567 h -21.95443 v -28.17803 h 21.82463 v 5.9716 h -14.89079 v 5.29961 h 13.67658 v 5.63561 h -13.67658 v 5.29961 h 15.02059 z"
       style="fill:#072342;fill-opacity:1;fill-rule:nonzero;stroke:none;stroke-width:7.63632"
       id="path138" />
    <path
       d="m 943.01857,222.83382 c 4.62759,0 8.35413,1.29812 11.18727,3.89452 2.83306,2.5887 4.24574,5.9945 4.24574,10.19448 0,4.20764 -1.41259,7.6058 -4.24574,10.20214 -2.83314,2.59635 -6.55968,3.88688 -11.18727,3.88688 h -11.14905 v -28.17802 z m -0.25166,22.16824 c 2.63453,0 4.74209,-0.74074 6.33046,-2.2069 1.58083,-1.4739 2.37488,-3.4287 2.37488,-5.87234 0,-2.43598 -0.79418,-4.39088 -2.37488,-5.86468 -1.58837,-1.4739 -3.69593,-2.2069 -6.33046,-2.2069 h -3.95565 v 16.15082 z"
       style="fill:#072342;fill-opacity:1;fill-rule:nonzero;stroke:none;stroke-width:7.63632"
       id="path150" />
    <path
       d="m 995.49617,226.49238 c 2.90182,2.86362 4.3527,6.35342 4.3527,10.47703 0,4.09307 -1.45096,7.55996 -4.3527,10.40831 -2.90183,2.84834 -6.45274,4.26871 -10.66034,4.26871 -4.2076,0 -7.75851,-1.42044 -10.6603,-4.26871 -2.90178,-2.84835 -4.35265,-6.31524 -4.35265,-10.40831 0,-4.12361 1.45087,-7.61341 4.35265,-10.47703 2.90179,-2.85599 6.4527,-4.29162 10.6603,-4.29162 4.2076,0 7.75851,1.43558 10.66034,4.29162 m -4.89492,16.42573 c 1.54257,-1.58083 2.31382,-3.56616 2.31382,-5.9487 0,-2.41309 -0.77121,-4.42142 -2.31382,-6.01743 -1.55009,-1.59598 -3.4669,-2.3978 -5.76542,-2.3978 -2.29848,0 -4.22285,0.80178 -5.75777,2.3978 -1.5501,1.59598 -2.32147,3.60434 -2.32147,6.01743 0,2.38254 0.77125,4.36798 2.32147,5.9487 1.53496,1.5884 3.45929,2.38254 5.75777,2.38254 2.29852,0 4.21528,-0.7942 5.76542,-2.38254"
       style="fill:#072342;fill-opacity:1;fill-rule:nonzero;stroke:none;stroke-width:7.63632"
       id="path154" />
    <path
       d="m 1044.6961,251.01567 h -6.7276 v -14.05083 l -7.3614,14.05083 h -4.2916 l -7.3996,-14.13484 v 14.13484 h -6.7352 v -28.17803 h 6.8115 l 9.4691,17.45663 9.4614,-17.45663 h 6.7734 z"
       style="fill:#072342;fill-opacity:1;fill-rule:nonzero;stroke:none;stroke-width:7.63632"
       id="path158" />
    <g
       id="g168"
       transform="matrix(7.6363222,0,0,-7.6363222,118.48207,98.268602)"
       style="fill:#43b0e8;fill-opacity:1">
      <path
         d="m 0,0 c -1.424,0 -2.583,-1.159 -2.583,-2.583 0,-1.424 1.159,-2.583 2.583,-2.583 1.424,0 2.583,1.159 2.583,2.583 C 2.583,-1.159 1.424,0 0,0"
         style="fill:#43b0e8;fill-opacity:1;fill-rule:nonzero;stroke:none"
         id="path170" />
    </g>
    <g
       id="g172"
       transform="matrix(7.6363222,0,0,-7.6363222,-2.4795578,-2.9676642)"
       style="fill:#43b0e8;fill-opacity:1">
      <path
         d="m 0,0 2.685,-2.685 c 3.37,3.371 8.023,5.458 13.155,5.458 5.132,0 9.785,-2.087 13.156,-5.458 L 31.681,0 C 27.623,4.058 22.019,6.572 15.84,6.572 9.662,6.572 4.059,4.058 0,0"
         style="fill:#43b0e8;fill-opacity:1;fill-rule:nonzero;stroke:none"
         id="path174" />
    </g>
    <g
       id="g176"
       transform="matrix(7.6363222,0,0,-7.6363222,34.42679,33.935634)"
       style="fill:#43b0e8;fill-opacity:1">
      <path
         d="m 0,0 2.685,-2.685 c 2.132,2.132 5.076,3.453 8.322,3.453 3.247,0 6.191,-1.321 8.323,-3.453 L 22.015,0 C 19.195,2.82 15.301,4.567 11.007,4.567 6.713,4.567 2.82,2.82 0,0"
         style="fill:#43b0e8;fill-opacity:1;fill-rule:nonzero;stroke:none"
         id="path178" />
    </g>
    <g
       id="g180"
       transform="matrix(7.6363222,0,0,-7.6363222,71.329314,70.839684)"
       style="fill:#43b0e8;fill-opacity:1">
      <path
         d="m 0,0 2.685,-2.685 c 0.894,0.894 2.128,1.448 3.49,1.448 1.362,0 2.596,-0.554 3.49,-1.448 L 12.35,0 C 10.768,1.582 8.583,2.562 6.175,2.562 3.766,2.562 1.582,1.582 0,0"
         style="fill:#43b0e8;fill-opacity:1;fill-rule:nonzero;stroke:none"
         id="path182" />
    </g>
    <g
       id="g184"
       transform="matrix(7.6363222,0,0,-7.6363222,191.12413,65.076563)"
       style="fill:#072342;fill-opacity:1">
      <path
         d="m 0,0 c 1.421,-1.946 2.263,-4.341 2.263,-6.93 0,-6.493 -5.283,-11.775 -11.776,-11.775 -6.493,0 -11.776,5.282 -11.776,11.775 0,2.589 0.842,4.984 2.264,6.93 l -2.708,2.708 c -2.098,-2.654 -3.354,-6.001 -3.354,-9.638 0,-8.587 6.986,-15.574 15.574,-15.574 8.588,0 15.575,6.987 15.575,15.574 0,3.637 -1.257,6.984 -3.354,9.638 z"
         style="fill:#072342;fill-opacity:1;fill-rule:nonzero;stroke:none"
         id="path186" />
    </g>
    <path
       d="m 1152.1339,72.440275 c 0,1.847943 -0.3434,3.566159 -1.0386,5.162154 -0.6948,1.595983 -1.6418,2.993446 -2.8407,4.192343 -1.2064,1.206563 -2.6116,2.153375 -4.2304,2.840709 -1.6191,0.694846 -3.3448,1.04616 -5.2004,1.04616 -1.848,0 -3.5662,-0.351343 -5.1622,-1.04616 -1.596,-0.687273 -2.9934,-1.634081 -4.1923,-2.840709 -1.2066,-1.198984 -2.1534,-2.59636 -2.8408,-4.192343 -0.6948,-1.595974 -1.0462,-3.31417 -1.0462,-5.162154 0,-1.84794 0.3513,-3.581443 1.0462,-5.200344 0.6873,-1.618926 1.6341,-3.023981 2.8408,-4.230526 1.199,-1.198985 2.5963,-2.145792 4.1923,-2.840701 1.596,-0.69485 3.3142,-1.03859 5.1622,-1.03859 1.8554,0 3.5813,0.34374 5.2004,1.03859 1.6189,0.694842 3.024,1.641869 4.2304,2.840701 1.199,1.206566 2.1458,2.611624 2.8407,4.230526 0.6949,1.618922 1.0386,3.352358 1.0386,5.200344 m -2.1457,0 c 0,-1.527364 -0.2901,-2.970539 -0.8706,-4.337434 -0.5803,-1.359175 -1.3746,-2.550539 -2.3902,-3.56616 -1.0157,-1.015647 -2.207,-1.817422 -3.5739,-2.390162 -1.3592,-0.580336 -2.8024,-0.870609 -4.3298,-0.870609 -1.5274,0 -2.9706,0.290058 -4.3297,0.870609 -1.3592,0.572765 -2.5582,1.37454 -3.5662,2.390162 -1.0232,1.015646 -1.8173,2.206902 -2.3978,3.56616 -0.5803,1.36696 -0.8628,2.810158 -0.8628,4.337434 0,1.519568 0.2826,2.970534 0.8628,4.329791 0.5803,1.366965 1.3745,2.550535 2.3978,3.573802 1.0081,1.015646 2.2069,1.809842 3.5662,2.390161 1.3594,0.580337 2.8024,0.862824 4.3297,0.862824 1.5274,0 2.9706,-0.282455 4.3298,-0.862824 1.367,-0.580336 2.5582,-1.374535 3.5739,-2.390161 1.0156,-1.023218 1.8099,-2.206903 2.3902,-3.573802 0.5803,-1.359166 0.8706,-2.810157 0.8706,-4.329791 m -8.5985,5.475251 v -3.123258 c 0,-0.595701 -0.1298,-1.023213 -0.3819,-1.275178 -0.252,-0.259519 -0.7483,-0.381841 -1.489,-0.381841 h -2.7034 v 4.78034 h -2.4971 V 65.781472 h 6.1702 c 1.1531,0 2.0695,0.33593 2.7338,1.008065 0.672,0.671898 1.008,1.511993 1.008,2.527636 0,0.649174 -0.1537,1.214137 -0.4504,1.70291 -0.2979,0.480983 -0.7482,0.840091 -1.3515,1.069113 0.5573,0.190507 0.9393,0.45046 1.1454,0.801775 0.2059,0.343697 0.3129,0.862822 0.3129,1.55788 v 3.46689 z m -4.5743,-10.049409 v 3.253067 h 3.1845 c 0.6491,0 1.1224,-0.14505 1.4204,-0.450456 0.3054,-0.297828 0.4583,-0.679701 0.4583,-1.137732 0,-0.511716 -0.1364,-0.916287 -0.42,-1.214143 -0.2753,-0.297827 -0.7408,-0.45046 -1.3899,-0.45046 z"
       style="fill:#43b0e8;fill-opacity:1;fill-rule:nonzero;stroke:none;stroke-width:7.63632"
       id="path190" />
  </g>
</svg>
